<svg aria-hidden="true" style="position:absolute;width:0;height:0;overflow:hidden" xmlns="http://www.w3.org/2000/svg">
  <defs>
    <symbol id="logo" viewBox="0 0 107 32">
      <path fill="#ff6b0a" style="fill:var(--color1, #ff6b0a)" d="M106.667 0v32H59.536V0h47.131zM74.42 8.811v13.927l.001.044a.842.842 0 0 1-.001.087c-.007.08.015.128.107.115a.485.485 0 0 1 .066-.001l.033.001h3.582c.075.001.112.001.129-.017s.016-.051.014-.116l-.001-.078V8.83l-.001-.033a.485.485 0 0 1 .001-.066c.008-.082-.02-.125-.109-.115-.018.002-.036.001-.054.001l-.028-.001h-3.55l-.062-.001c-.065-.001-.098-.001-.114.015s-.016.049-.015.116l.001.064zm19.579-.194h-5.863c-1.954 0-3.908 0-5.86-.002h-.133c-.066-.003-.089.028-.084.089a.486.486 0 0 1 0 .054v3.398c0 .072-.001.107.017.124s.051.017.118.016H85.923c.12 0 .18 0 .209.03s.029.087.029.2v10.335c-.001.059-.001.09.014.106.017.018.052.017.127.017h3.571c.111 0 .166 0 .193-.028s.027-.08.027-.186V12.488l-.001-.059c-.001-.063-.001-.097.015-.114.018-.019.055-.018.133-.018h3.798c.162 0 .162 0 .164-.159V8.759c.001-.072.001-.108-.016-.126s-.053-.017-.123-.016L94 8.618z"/>
      <path fill="#010101" style="fill:var(--color2, #010101)" d="m47.132 0 12.403 16-12.403 16H0V0h47.132zm-26.38 13.662.215.174a.371.371 0 0 0 .106-.107.256.256 0 0 1 .02-.026c.254-.302.507-.606.76-.91.507-.606 1.012-1.212 1.518-1.82.101-.122.097-.177-.018-.276a12.617 12.617 0 0 0-.277-.233c-.803-.657-1.685-1.17-2.684-1.467a9.43 9.43 0 0 0-2.043-.353c-.905-.061-1.802-.031-2.691.174-3.112.716-5.434 3.292-5.707 6.594a7.795 7.795 0 0 0 .225 2.638c.519 1.96 1.645 3.461 3.434 4.45.975.539 2.03.823 3.14.912.94.076 1.87.018 2.788-.189 1.553-.35 2.925-1.056 4.146-2.067a.333.333 0 0 0 .137-.289c-.004-1.572-.004-3.145-.003-4.717v-1.179a.66.66 0 0 0-.003-.062c-.003-.046-.006-.092.006-.134.015-.049-.012-.077-.037-.104-.021-.022-.042-.044-.039-.077.007-.054-.03-.062-.073-.062h-6.556l-.038.001c-.026.001-.052.002-.077-.001-.066-.007-.087.026-.083.087a.657.657 0 0 1 .001.077l-.001.038V17.839l-.001.074c-.001.063-.002.096.014.112s.052.017.125.016H19.772c.072-.001.107-.001.124.016.016.016.015.048.014.11l-.001.078v.679c0 .308 0 .311-.279.445-.818.391-1.681.503-2.573.391-.991-.123-1.784-.591-2.365-1.401-.378-.527-.585-1.122-.662-1.763-.097-.818.002-1.605.373-2.348.448-.892 1.125-1.533 2.098-1.827.682-.207 1.373-.153 2.056-.003.619.135 1.159.437 1.657.816.182.138.359.281.539.427zm18.346-2.98c-1.528-1.39-3.348-2.052-5.229-2.066-.869.002-1.518.072-2.207.251-1.998.521-3.563 1.638-4.602 3.422-1.067 1.83-1.283 3.793-.687 5.812.667 2.257 2.089 3.9 4.29 4.815 1.69.701 3.44.795 5.206.332 2.051-.537 3.624-1.725 4.654-3.578.869-1.562 1.102-3.238.778-4.987-.291-1.572-1.017-2.919-2.203-4zm-8.437 3.528c.666-1.227 1.729-1.815 2.762-1.838 2.094-.005 3.464 1.173 3.837 2.806.226.984.125 1.94-.358 2.834-.57 1.05-1.458 1.661-2.654 1.797-1.156.133-2.165-.194-2.99-1.025a3.579 3.579 0 0 1-.983-1.914c-.172-.928-.066-1.827.386-2.66z"/>
    </symbol>
    <symbol id="javascript" viewBox="0 0 32 32">
      <path fill="#f7df1e" style="fill:var(--color3, #f7df1e)" d="M0 0h32v32H0V0z"/>
      <path style="fill:var(--color4, #000)" d="m8.414 26.741 2.449-1.482c.473.838.902 1.546 1.933 1.546.988 0 1.611-.387 1.611-1.89V14.69h3.007v10.267c0 3.115-1.826 4.532-4.489 4.532-2.406 0-3.802-1.246-4.511-2.75zm10.634-.322 2.448-1.418c.645 1.053 1.482 1.826 2.964 1.826 1.246 0 2.041-.623 2.041-1.482 0-1.031-.816-1.396-2.191-1.997l-.752-.323c-2.17-.923-3.609-2.083-3.609-4.532 0-2.256 1.718-3.974 4.404-3.974 1.912 0 3.287.666 4.274 2.406l-2.341 1.504c-.516-.924-1.074-1.289-1.933-1.289-.881 0-1.439.558-1.439 1.289 0 .902.558 1.268 1.847 1.826l.752.322c2.556 1.096 3.995 2.212 3.995 4.726 0 2.707-2.127 4.189-4.983 4.189-2.792 0-4.597-1.332-5.477-3.072z"/>
    </symbol>
    <symbol id="icon-close" viewBox="0 0 32 32">
      <path stroke-width="3" stroke-miterlimit="4" stroke-linecap="round" stroke-linejoin="round" d="M24 8l-16 16"></path>
      <path stroke-width="3" stroke-miterlimit="4" stroke-linecap="round" stroke-linejoin="round" d="M8 8l16 16"></path>
    </symbol>
    <symbol id="icon-logo" viewBox="0 0 346 32">
      <path fill="#fbfbfb" style="fill: var(--color1, #fbfbfb)" d="M29.082 0.314h-4.010c-1.237 0-2.24 0.983-2.24 2.195v3.929c0 1.212 1.003 2.195 2.24 2.195h4.010c1.237 0 2.24-0.983 2.24-2.195v-3.929c0-1.212-1.003-2.195-2.24-2.195z"></path>
      <path fill="#fbfbfb" style="fill: var(--color1, #fbfbfb)" d="M6.73 23.040h-4.318c-1.332 0-2.412 0.983-2.412 2.195v3.929c0 1.212 1.080 2.195 2.412 2.195h4.318c1.332 0 2.412-0.983 2.412-2.195v-3.929c0-1.212-1.080-2.195-2.412-2.195z"></path>
      <path fill="#fbfbfb" style="fill: var(--color1, #fbfbfb)" d="M6.25 11.582h-4.009c-1.237 0-2.24 0.983-2.24 2.195v3.929c0 1.212 1.003 2.195 2.24 2.195h4.009c1.237 0 2.24-0.983 2.24-2.195v-3.929c0-1.212-1.003-2.195-2.24-2.195z"></path>
      <path fill="#fbfbfb" style="fill: var(--color1, #fbfbfb)" d="M17.766 22.978h-4.009c-1.237 0-2.24 0.983-2.24 2.195l-0 3.929c0 1.212 1.003 2.196 2.241 2.196h4.009c1.237 0 2.24-0.983 2.24-2.196v-3.929c0-1.212-1.003-2.195-2.24-2.195z"></path>
      <path fill="#fbfbfb" style="fill: var(--color1, #fbfbfb)" d="M6.25 0.086h-4.009c-1.237 0-2.24 0.983-2.24 2.195v3.929c0 1.212 1.003 2.195 2.24 2.195h4.009c1.237 0 2.24-0.983 2.24-2.195v-3.929c0-1.212-1.003-2.195-2.24-2.195z"></path>
      <path fill="#fbfbfb" style="fill: var(--color1, #fbfbfb)" d="M18.076 11.697h-4.009c-1.237 0-2.24 0.983-2.24 2.195v3.929c0 1.212 1.003 2.195 2.24 2.195h4.009c1.237 0 2.24-0.983 2.24-2.195v-3.929c0-1.212-1.003-2.195-2.24-2.195z"></path>
      <path fill="#fbfbfb" style="fill: var(--color1, #fbfbfb)" d="M29.333 22.978h-4.009c-1.237 0-2.24 0.983-2.24 2.195v3.929c0 1.212 1.003 2.196 2.24 2.196h4.009c1.237 0 2.24-0.983 2.24-2.196v-3.929c0-1.212-1.003-2.195-2.24-2.195z"></path>
      <path fill="#fbfbfb" style="fill: var(--color1, #fbfbfb)" d="M17.591 0.224h-4.009c-1.237 0-2.24 0.983-2.24 2.195v3.929c0 1.212 1.003 2.195 2.24 2.195h4.009c1.237 0 2.24-0.984 2.24-2.196v-3.929c0-1.212-1.003-2.195-2.24-2.195z"></path>
      <path fill="#fbfbfb" style="fill: var(--color1, #fbfbfb)" d="M29.044 11.926h-4.009c-1.237 0-2.24 0.983-2.24 2.195v3.929c0 1.212 1.003 2.195 2.24 2.195h4.009c1.237 0 2.24-0.983 2.24-2.195v-3.929c0-1.212-1.003-2.195-2.24-2.195z"></path>
      <path fill="#fbfbfb" style="fill: var(--color1, #fbfbfb)" d="M59.112 30.223c-7.748 0-12.89-5.227-12.89-13.369 0-7.965 5.068-13.298 12.706-13.298 6.427 0 10.943 3.662 11.604 9.173h-5.325c-0.514-3.164-2.975-4.942-6.28-4.942-4.627 0-7.381 3.627-7.381 9.067 0 5.973 3.085 9.138 7.565 9.138 3.893 0 6.39-2.133 6.647-5.333v-0.356h-7.161v-3.982h12.118v3.271c-0.22 6.364-4.847 10.631-11.604 10.631z"></path>
      <path fill="#fbfbfb" style="fill: var(--color1, #fbfbfb)" d="M73.926 29.867v-25.956h12.89c6.573 0 9.181 3.093 9.181 7.573 0 4.018-2.938 5.938-6.353 6.4v0.107c2.203 0.533 3.195 1.707 4.113 4.018 1.175 2.916 1.359 6.4 2.864 7.644v0.213h-5.876c-1.248-1.209-1.542-5.013-2.203-7.324-0.661-2.382-2.093-2.667-4.774-2.667h-4.7v9.991h-5.141zM79.067 15.752h7.198c3.011 0 4.407-1.707 4.407-3.911 0-2.418-1.726-3.804-4.407-3.804h-7.198v7.716z"></path>
      <path fill="#fbfbfb" style="fill: var(--color1, #fbfbfb)" d="M99.411 29.867v-25.956h18.324v4.124h-13.183v6.187h11.898v4.124h-11.898v7.289h13.367v4.231h-18.508z"></path>
      <path fill="#fbfbfb" style="fill: var(--color1, #fbfbfb)" d="M121.489 29.867v-25.956h18.325v4.124h-13.183v6.187h11.898v4.124h-11.898v7.289h13.367v4.231h-18.508z"></path>
      <path fill="#fbfbfb" style="fill: var(--color1, #fbfbfb)" d="M143.567 29.867v-25.956h6.243l8.887 14.329c2.717 4.338 3.049 5.76 3.049 5.76h0.109l-0.072-20.089h5.141v25.956h-6.28l-9.217-14.756c-2.093-3.342-2.644-5.369-2.644-5.369h-0.073v20.124h-5.141z"></path>
      <path fill="#fbfbfb" style="fill: var(--color1, #fbfbfb)" d="M170.79 29.867v-5.262h5.362v5.262h-5.362z"></path>
      <path fill="#fbfbfb" style="fill: var(--color1, #fbfbfb)" d="M180.013 29.867v-25.956h5.141v10.382h12.302v-10.382h5.141v25.956h-5.141v-11.449h-12.302v11.449h-5.141z"></path>
      <path fill="#fbfbfb" style="fill: var(--color1, #fbfbfb)" d="M204.795 29.867l10.282-25.956h5.582l10.429 25.956h-5.509l-2.166-5.973h-11.126l-2.166 5.973h-5.325zM213.755 19.77h8.189l-2.387-6.4c-1.653-4.729-1.69-5.582-1.69-5.582h-0.072c0 0 0 0.853-1.653 5.582l-2.387 6.4z"></path>
      <path fill="#fbfbfb" style="fill: var(--color1, #fbfbfb)" d="M233.278 29.867v-25.956h12.89c6.573 0 9.181 3.093 9.181 7.573 0 4.018-2.938 5.938-6.354 6.4v0.107c2.203 0.533 3.195 1.707 4.114 4.018 1.174 2.916 1.358 6.4 2.864 7.644v0.213h-5.875c-1.25-1.209-1.542-5.013-2.205-7.324-0.661-2.382-2.093-2.667-4.773-2.667h-4.701v9.991h-5.141zM238.419 15.752h7.197c3.011 0 4.408-1.707 4.408-3.911 0-2.418-1.726-3.804-4.408-3.804h-7.197v7.716z"></path>
      <path fill="#fbfbfb" style="fill: var(--color1, #fbfbfb)" d="M264.213 29.867l-9.842-25.956h5.509c0 0 5.325 14.542 5.875 16.32 0.882 2.844 1.286 4.302 1.286 4.302h0.074c-0.037 0 0.366-1.458 1.285-4.302 0.587-1.778 5.691-16.32 5.691-16.32h5.325l-9.474 25.956h-5.73z"></path>
      <path fill="#fbfbfb" style="fill: var(--color1, #fbfbfb)" d="M281.522 29.867v-25.956h18.325v4.124h-13.182v6.187h11.898v4.124h-11.898v7.289h13.366v4.231h-18.509z"></path>
      <path fill="#fbfbfb" style="fill: var(--color1, #fbfbfb)" d="M312.794 30.223c-6.83 0-10.942-3.591-10.942-8.924h5.875c-0.074 3.022 1.982 4.693 5.067 4.693 3.269 0 4.811-1.244 4.811-3.093s-1.322-2.631-6.022-3.876c-4.298-1.138-8.997-2.489-8.997-7.822 0-4.231 3.819-7.644 9.842-7.644 6.205 0 10.171 3.378 10.171 8.142h-5.691c-0.037-2.524-1.8-3.911-4.48-3.911-2.608 0-4.334 1.28-4.334 2.987 0 2.027 1.432 2.667 5.179 3.698 5.544 1.493 10.024 2.098 10.024 7.893 0 4.658-4.37 7.858-10.502 7.858z"></path>
      <path fill="#fbfbfb" style="fill: var(--color1, #fbfbfb)" d="M331.669 29.867v-21.724h-8.117v-4.231h21.336v4.231h-8.078v21.724h-5.141z"></path>
    </symbol>
    <symbol id="icon-header-mob-menu" viewBox="0 0 32 32">
      <path stroke-width="3" stroke-miterlimit="4" stroke-linecap="round" stroke-linejoin="round" d="M5.333 8h21.333M5.333 16h10.667M5.333 24h21.333"></path>
    </symbol>
  </defs>
</svg>